<svg width="45" height="31" viewBox="0 0 45 31" fill="none" xmlns="http://www.w3.org/2000/svg">
<path d="M37.3128 26.5078C36.9524 26.5078 36.6602 26.8 36.6602 27.1605C36.6602 27.5209 36.9524 27.8131 37.3128 27.8131H37.3198C37.6802 27.8131 37.9689 27.5209 37.9689 27.1605C37.9689 26.8 37.6733 26.5078 37.3128 26.5078Z" fill="#121111"/>
<path d="M15.6878 26.5078C15.3274 26.5078 15.0352 26.8 15.0352 27.1605C15.0352 27.5209 15.3274 27.8131 15.6878 27.8131H15.6948C16.0552 27.8131 16.3439 27.5209 16.3439 27.1605C16.3439 26.8 16.0483 26.5078 15.6878 26.5078Z" fill="#121111"/>
<path d="M43.8761 19.2435L41.789 17.7513L41.7588 11.4398C41.7541 10.4678 41.0294 9.76228 40.0357 9.76228H34.9693C35.0287 9.41821 34.9525 9.07988 34.7519 8.8183C34.5319 8.53165 34.1856 8.36719 33.8019 8.36719H29.2538C28.8934 8.36719 28.6011 8.6594 28.6011 9.01983C28.6011 9.38027 28.8934 9.67248 29.2538 9.67248L33.6489 9.67257L29.1389 26.5037H19.2273C19.2407 25.85 19.055 25.2374 18.6825 24.7519C18.1686 24.0823 17.3709 23.7134 16.4362 23.7134C14.7564 23.7134 13.0889 24.9052 12.4321 26.5037L9.56352 26.5036L10.8387 21.7446C10.932 21.3965 10.7254 21.0386 10.3772 20.9453C10.0296 20.8523 9.67117 21.0586 9.57779 21.4068L8.26946 26.2899C8.16608 26.6756 8.23578 27.0649 8.46064 27.3579C8.68062 27.6445 9.02687 27.809 9.41054 27.809H12.1499C12.1365 28.4627 12.3221 29.0752 12.6947 29.5607C13.2085 30.2304 14.0062 30.5992 14.9409 30.5992C16.6207 30.5992 18.2882 29.4075 18.945 27.809H33.7743C33.7609 28.4627 33.9465 29.0752 34.319 29.5607C34.8329 30.2304 35.6306 30.5992 36.5653 30.5992C38.2451 30.5992 39.9125 29.4075 40.5694 27.809H40.8008C41.8639 27.809 42.9179 26.9837 43.2001 25.9301L44.4838 21.1396C44.6864 20.3828 44.4537 19.6563 43.8761 19.2435ZM17.8484 26.9875C17.5134 28.2377 16.182 29.2939 14.9409 29.2939C14.4214 29.2939 13.9914 29.1065 13.7302 28.7661C13.4493 28.4001 13.3778 27.8885 13.5287 27.3253C13.8637 26.075 15.1952 25.0187 16.4362 25.0187C16.9557 25.0187 17.3857 25.2062 17.6469 25.5465C17.9278 25.9126 17.9994 26.4243 17.8484 26.9875ZM40.4821 17.4354H36.2549C36.1446 17.4354 35.9949 17.4118 35.9085 17.2992C35.8324 17.2 35.8162 17.0406 35.8641 16.8619L36.4248 14.7692C36.5549 14.2837 37.0869 13.8579 37.5633 13.8579H40.465L40.4821 17.4354ZM39.4728 26.9875C39.1377 28.2377 37.8063 29.2939 36.5653 29.2939C36.0457 29.2939 35.6158 29.1065 35.3546 28.7661C35.0737 28.4001 35.0021 27.8885 35.1531 27.3253C35.488 26.075 36.8195 25.0187 38.0606 25.0187C38.5801 25.0187 39.0101 25.2062 39.2713 25.5465C39.5521 25.9126 39.6237 26.4243 39.4728 26.9875ZM41.9392 25.5924C41.8138 26.0606 41.3144 26.4723 40.8517 26.501C40.8645 25.8484 40.6788 25.2368 40.3067 24.752C39.7929 24.0824 38.9952 23.7135 38.0605 23.7135C36.3807 23.7135 34.7132 24.9053 34.0564 26.5038H30.4902L31.6358 22.2286H39.5056C39.8661 22.2286 40.1583 21.9364 40.1583 21.576C40.1583 21.2155 39.8661 20.9233 39.5056 20.9233H31.9855L34.6263 11.0677H40.0355C40.2253 11.0677 40.4519 11.1334 40.4534 11.4462L40.4587 12.5527H37.5632C36.5001 12.5527 35.4461 13.3779 35.1638 14.4315L34.6031 16.5241C34.4494 17.0979 34.5477 17.6701 34.8729 18.0939C35.1883 18.5051 35.6921 18.7408 36.2549 18.7408H40.9285L43.1169 20.3054C43.3029 20.4384 43.245 20.719 43.2228 20.8018L43.1902 20.9233H42.2959C41.9355 20.9233 41.6433 21.2155 41.6433 21.576C41.6433 21.9364 41.9355 22.2286 42.2959 22.2286H42.8405L41.9392 25.5924Z" fill="#121111"/>
<path d="M16.6998 20.837C22.4445 20.837 27.1183 16.1634 27.1183 10.4185C27.1183 4.67365 22.4445 0 16.6998 0C10.955 0 6.28125 4.67373 6.28125 10.4185C6.28125 16.1633 10.955 20.837 16.6998 20.837ZM16.6998 1.30529C21.7248 1.30529 25.813 5.39347 25.813 10.4185C25.813 15.4435 21.7249 19.5317 16.6998 19.5317C11.6746 19.5317 7.58654 15.4435 7.58654 10.4185C7.58654 5.39347 11.6747 1.30529 16.6998 1.30529Z" fill="#121111"/>
<path d="M13.9066 13.8612C14.0736 13.8612 14.2407 13.7975 14.3681 13.67L15.7863 12.2517C16.0608 12.3886 16.3699 12.4661 16.6968 12.4661C17.826 12.4661 18.7446 11.5474 18.7446 10.4183C18.7446 10.0914 18.6671 9.78229 18.5302 9.50783L22.0412 5.99693C22.2961 5.74205 22.2961 5.3288 22.0412 5.07401C21.7863 4.81904 21.3731 4.81913 21.1183 5.07401L17.6073 8.5849C17.3328 8.44801 17.0237 8.37065 16.6968 8.37065C15.5676 8.37065 14.6491 9.28932 14.6491 10.4184C14.6491 10.7453 14.7265 11.0544 14.8633 11.3289L13.4451 12.7471C13.1902 13.002 13.1902 13.4153 13.4451 13.6701C13.5726 13.7975 13.7395 13.8612 13.9066 13.8612ZM16.6968 9.67586C17.1062 9.67586 17.4393 10.009 17.4393 10.4183C17.4393 10.8277 17.1062 11.1608 16.6968 11.1608C16.2875 11.1608 15.9544 10.8277 15.9544 10.4183C15.9544 10.009 16.2875 9.67586 16.6968 9.67586Z" fill="#121111"/>
<path d="M16.6956 4.79193C17.0561 4.79193 17.3483 4.49971 17.3483 4.13927V3.44172C17.3483 3.08128 17.0561 2.78906 16.6956 2.78906C16.3352 2.78906 16.043 3.08128 16.043 3.44172V4.13927C16.043 4.4998 16.3352 4.79193 16.6956 4.79193Z" fill="#121111"/>
<path d="M16.6956 16.0391C16.3352 16.0391 16.043 16.3313 16.043 16.6917V17.3893C16.043 17.7497 16.3352 18.0419 16.6956 18.0419C17.0561 18.0419 17.3483 17.7497 17.3483 17.3893V16.6917C17.3483 16.3313 17.0561 16.0391 16.6956 16.0391Z" fill="#121111"/>
<path d="M22.973 11.0709H23.6705C24.031 11.0709 24.3232 10.7787 24.3232 10.4183C24.3232 10.0578 24.031 9.76562 23.6705 9.76562H22.973C22.6125 9.76562 22.3203 10.0578 22.3203 10.4183C22.3203 10.7787 22.6125 11.0709 22.973 11.0709Z" fill="#121111"/>
<path d="M11.0732 10.4183C11.0732 10.0578 10.781 9.76562 10.4205 9.76562H9.72297C9.36253 9.76562 9.07031 10.0578 9.07031 10.4183C9.07031 10.7787 9.36253 11.0709 9.72297 11.0709H10.4205C10.781 11.0709 11.0732 10.7787 11.0732 10.4183Z" fill="#121111"/>
<path d="M7.62822 18.8359H0.652647C0.292212 18.8359 0 19.1281 0 19.4886C0 19.849 0.292212 20.1412 0.652647 20.1412H7.62822C7.98866 20.1412 8.28087 19.849 8.28087 19.4886C8.28087 19.1281 7.98866 18.8359 7.62822 18.8359Z" fill="#121111"/>
<path d="M6.93183 21.625H2.7464C2.38597 21.625 2.09375 21.9172 2.09375 22.2777C2.09375 22.6381 2.38597 22.9303 2.7464 22.9303H6.93183C7.29227 22.9303 7.58449 22.6381 7.58449 22.2777C7.58449 21.9172 7.29227 21.625 6.93183 21.625Z" fill="#121111"/>
<path d="M6.23527 24.4141H4.84015C4.47972 24.4141 4.1875 24.7063 4.1875 25.0667C4.1875 25.4272 4.47972 25.7194 4.84015 25.7194H6.23527C6.59571 25.7194 6.88792 25.4272 6.88792 25.0667C6.88792 24.7063 6.59571 24.4141 6.23527 24.4141Z" fill="#121111"/>
</svg>
