<svg width="25" height="32" viewBox="0 0 25 32" fill="none" xmlns="http://www.w3.org/2000/svg">
<path d="M24.6013 6.47912L12.5743 0.0705121C12.3959 -0.0247149 12.182 -0.0233785 12.005 0.0738533L0.310741 6.48246C0.11895 6.58771 0 6.78886 0 7.00772V15.379C0.00701675 22.2604 4.08407 28.4859 10.3891 31.2428L12.0123 31.9502C12.164 32.0163 12.3367 32.0167 12.4888 31.9508L14.3178 31.161C20.7398 28.4639 24.9177 22.1782 24.9184 15.2129V7.00772C24.9184 6.78652 24.7964 6.58304 24.6013 6.47912ZM23.7209 15.2129C23.7195 21.6981 19.8286 27.5497 13.849 30.0593L13.845 30.0613L12.2522 30.749L10.8682 30.1452C4.99925 27.5791 1.20387 21.7846 1.19719 15.379V7.36223L12.2966 1.27906L23.7209 7.36657V15.2129Z" fill="#121111"/>
<path d="M7.87859 14.9911C7.66374 14.7395 7.28584 14.7098 7.03424 14.9247C6.78264 15.1392 6.7529 15.5174 6.96775 15.7687L10.1306 19.4725C10.3418 19.7197 10.7117 19.7535 10.9636 19.5483L18.3298 13.5554C18.5864 13.3469 18.6252 12.9697 18.4164 12.713C18.2079 12.4568 17.8306 12.4177 17.574 12.6265L10.6616 18.2499L7.87859 14.9911Z" fill="#121111"/>
</svg>
