<svg width="60" height="50" viewBox="0 0 60 50" fill="none" xmlns="http://www.w3.org/2000/svg">
<path d="M57.1222 7.81973L14.148 0.0538869C12.2647 -0.289257 10.4352 1.04557 10.1086 2.94316L7.34084 19.0288H3.38711C1.51936 19.0288 0 20.5685 0 22.4602V46.5686C0 48.4603 1.51936 50 3.38711 50H47.2197C49.0875 50 50.6068 48.4603 50.6068 46.5686V38.0914C51.8625 38.3184 53.0746 38.586 54.2354 37.8826C55.1064 37.3546 55.7311 36.4443 55.9057 35.4301L59.947 11.9414C60.2795 10.0095 59.0122 8.16042 57.1222 7.81973ZM12.0155 3.27993C12.1607 2.43727 12.9678 1.83186 13.8083 1.98383L56.7825 9.74967C57.6259 9.90213 58.1901 10.734 58.0406 11.6041L57.3738 15.4817L11.3468 7.16482L12.0155 3.27993ZM48.6713 46.5686C48.6713 47.3794 48.0201 48.0392 47.2197 48.0392H3.38711C2.58679 48.0392 1.93549 47.3794 1.93549 46.5686V22.4602C1.93549 21.6494 2.58679 20.9896 3.38711 20.9896H47.2197C48.0201 20.9896 48.6713 21.6494 48.6713 22.4602V46.5686ZM53.9993 35.0933C53.6983 36.837 51.787 36.313 50.6068 36.0997V22.4602C50.6068 20.5685 49.0875 19.0288 47.2197 19.0288H9.30585L11.0144 9.09623L57.0409 17.4131L53.9993 35.0933Z" fill="#121111"/>
<path d="M22.7996 44.1195H17.2351C16.7009 44.1195 16.2673 43.6803 16.2673 43.1391C16.2673 42.5979 16.7009 42.1587 17.2351 42.1587H22.7996C23.3338 42.1587 23.7674 42.5979 23.7674 43.1391C23.7674 43.6803 23.3343 44.1195 22.7996 44.1195Z" fill="#121111"/>
<path d="M12.228 44.1195H6.66342C6.12922 44.1195 5.69567 43.6803 5.69567 43.1391C5.69567 42.5979 6.12922 42.1587 6.66342 42.1587H12.228C12.7622 42.1587 13.1957 42.5979 13.1957 43.1391C13.1957 43.6803 12.7622 44.1195 12.228 44.1195Z" fill="#121111"/>
<path d="M33.3713 44.1195H27.8067C27.2725 44.1195 26.839 43.6803 26.839 43.1391C26.839 42.5979 27.2725 42.1587 27.8067 42.1587H33.3713C33.9055 42.1587 34.339 42.5979 34.339 43.1391C34.339 43.6803 33.906 44.1195 33.3713 44.1195Z" fill="#121111"/>
<path d="M43.9434 44.1195H38.3789C37.8447 44.1195 37.4111 43.6803 37.4111 43.1391C37.4111 42.5979 37.8447 42.1587 38.3789 42.1587H43.9434C44.4776 42.1587 44.9112 42.5979 44.9112 43.1391C44.9112 43.6803 44.4776 44.1195 43.9434 44.1195Z" fill="#121111"/>
<path d="M14.7281 39.0331H7.71874C6.38471 39.0331 5.29938 37.9336 5.29938 36.5821V33.7663C5.29938 32.4148 6.38471 31.3153 7.71874 31.3153H14.7281C16.0622 31.3153 17.1475 32.4148 17.1475 33.7663V36.5821C17.1475 37.9331 16.0617 39.0331 14.7281 39.0331ZM7.71874 33.2756C7.45213 33.2756 7.23487 33.4953 7.23487 33.7659V36.5816C7.23487 36.8522 7.45213 37.0718 7.71874 37.0718H14.7281C14.9947 37.0718 15.212 36.8522 15.212 36.5816V33.7659C15.212 33.4953 14.9947 33.2756 14.7281 33.2756H7.71874Z" fill="#121111"/>
</svg>
