<svg width="50" height="50" viewBox="0 0 50 50" fill="none" xmlns="http://www.w3.org/2000/svg">
<path d="M50 25.0002C50 11.2028 38.7976 0.000314959 25.001 0C11.2042 0 0.00190786 11.2028 0.00190786 25.0008C0.0100968 29.4162 1.20904 33.7371 3.43195 37.5459L0.0442228 47.7128C-0.172974 48.3644 0.446752 48.9843 1.09826 48.7672L10.8214 45.527C14.9889 48.412 19.9234 49.9924 25.0001 50C38.7977 49.9997 50 38.7972 50 25.0002ZM48.333 24.9998C48.333 37.8961 37.8974 48.3323 25.0018 48.3326C20.1222 48.3326 15.368 46.789 11.4073 43.9389C11.1902 43.7815 10.9113 43.7405 10.6574 43.8255L2.1525 46.6599L5.12358 37.7424C5.20065 37.5094 5.17199 37.2565 5.04525 37.0473C2.84395 33.4143 1.67626 29.2493 1.6681 25.0002C1.66892 12.1035 12.1054 1.66708 25.0009 1.66739C37.8969 1.66739 48.333 12.1048 48.333 25.0011L48.333 24.9998ZM16.6474 22.5C15.2766 22.5 14.1477 23.6291 14.1477 24.9998C14.1477 26.3709 15.2766 27.4997 16.6474 27.4997C18.0182 27.4997 19.1471 26.3709 19.1471 24.9998C19.1471 23.6291 18.0182 22.5 16.6474 22.5ZM25.001 22.5C23.6301 22.5 22.5012 23.6291 22.5013 24.9998C22.5013 26.3709 23.6302 27.4997 25.001 27.4997C26.3717 27.4997 27.5006 26.3709 27.5007 24.9998C27.5007 23.6291 26.3718 22.5 25.001 22.5ZM33.3136 22.5C31.9428 22.5 30.8131 23.6291 30.8131 24.9998C30.8131 26.3709 31.9428 27.4997 33.3136 27.4997C34.6844 27.4997 35.8133 26.3709 35.8133 24.9998C35.8133 23.6291 34.6844 22.5 33.3136 22.5ZM16.6474 24.1665C17.1175 24.1665 17.4809 24.5299 17.4809 24.9998C17.4809 25.4701 17.1175 25.8335 16.6474 25.8335C16.1773 25.8335 15.8139 25.4701 15.8139 24.9998C15.8139 24.5299 16.1773 24.1665 16.6474 24.1665ZM25.001 24.1665C25.471 24.1665 25.8336 24.5299 25.8336 24.9998C25.8336 25.4701 25.471 25.8335 25.001 25.8335C24.5309 25.8335 24.1675 25.4701 24.1674 24.9998C24.1674 24.5299 24.5309 24.1665 25.001 24.1665ZM33.3136 24.1665C33.7837 24.1665 34.1463 24.5299 34.1463 24.9998C34.1463 25.4701 33.7837 25.8335 33.3136 25.8335C32.8435 25.8335 32.4801 25.4701 32.4801 24.9998C32.4801 24.5299 32.8435 24.1665 33.3136 24.1665Z" fill="#121111"/>
</svg>
