<svg width="55" height="55" viewBox="0 0 55 55" fill="none" xmlns="http://www.w3.org/2000/svg">
<path d="M27.4986 10.1162C24.0607 10.1162 20.7 11.1356 17.8414 13.0456C14.9829 14.9557 12.755 17.6704 11.4393 20.8466C10.1237 24.0229 9.77947 27.5179 10.4502 30.8898C11.1209 34.2616 12.7764 37.3589 15.2074 39.7899C17.6384 42.2208 20.7356 43.8764 24.1075 44.5471C27.4793 45.2178 30.9744 44.8735 34.1506 43.5579C37.3268 42.2423 40.0416 40.0143 41.9516 37.1558C43.8616 34.2973 44.8811 30.9365 44.8811 27.4986C44.8759 22.8901 43.0429 18.4718 39.7842 15.213C36.5255 11.9543 32.1072 10.1213 27.4986 10.1162ZM27.4986 42.9487C24.4434 42.9487 21.4568 42.0427 18.9165 40.3454C16.3761 38.6481 14.3961 36.2356 13.2269 33.413C12.0576 30.5904 11.7515 27.4844 12.3474 24.4879C12.9433 21.4914 14.4143 18.7388 16.5745 16.5783C18.7347 14.4178 21.4871 12.9464 24.4835 12.3501C27.48 11.7537 30.586 12.0594 33.4087 13.2282C36.2315 14.3971 38.6443 16.3767 40.342 18.9168C42.0397 21.4569 42.946 24.4434 42.9465 27.4986C42.9419 31.5943 41.313 35.5208 38.4169 38.4169C35.5208 41.313 31.5943 42.9419 27.4986 42.9465V42.9487Z" fill="#121111"/>
<path d="M52.5879 31.5364C53.7171 30.4044 54.9972 29.1215 54.9972 27.4986C54.9972 25.8758 53.7171 24.5929 52.5879 23.4636C51.8284 22.7025 51.0435 21.916 50.8628 21.24C50.6682 20.5126 50.9612 19.4049 51.2442 18.3331C51.6642 16.744 52.0981 15.1002 51.316 13.7488C50.5217 12.3763 48.8663 11.9297 47.265 11.498C46.2076 11.2128 45.1138 10.9176 44.5981 10.4019C44.0824 9.88624 43.7878 8.79292 43.5025 7.73499C43.0709 6.13205 42.6242 4.47882 41.2523 3.68454C39.8998 2.90242 38.256 3.33631 36.6646 3.75584C35.5929 4.03884 34.4841 4.33069 33.7578 4.13723C33.0812 3.95649 32.2953 3.1716 31.5341 2.41214C30.4044 1.28014 29.1215 0 27.4986 0C25.8758 0 24.5934 1.28014 23.4636 2.40938C22.7025 3.16884 21.916 3.95372 21.24 4.13447C20.5126 4.32792 19.4044 4.03608 18.3326 3.75308C16.7424 3.333 15.0996 2.89855 13.7477 3.68122C12.3752 4.4755 11.9291 6.13095 11.4969 7.73222C11.2123 8.78961 10.9171 9.88403 10.4014 10.3992C9.88568 10.9143 8.79237 11.2095 7.73444 11.4947C6.1315 11.9264 4.47772 12.373 3.68399 13.7454C2.90186 15.0969 3.33576 16.7407 3.75529 18.3298C4.03829 19.4016 4.33124 20.5098 4.13668 21.2372C3.95206 21.916 3.16884 22.6998 2.40993 23.4636C1.28014 24.5956 0 25.8785 0 27.5014C0 29.1242 1.28014 30.4071 2.40993 31.5391C3.16884 32.3002 3.95372 33.0868 4.13447 33.7628C4.32903 34.4902 4.03608 35.5979 3.75308 36.6702C3.33355 38.2593 2.8991 39.9026 3.68177 41.254C4.4755 42.6265 6.13095 43.0731 7.73222 43.5047C8.78961 43.79 9.88347 44.0851 10.3986 44.6008C10.9138 45.1165 11.2095 46.2104 11.4947 47.2678C11.9264 48.8707 12.373 50.5239 13.7454 51.3182C15.0969 52.1009 16.7413 51.6664 18.3304 51.2469C19.4016 50.9639 20.5087 50.6704 21.2372 50.8655C21.9138 51.0463 22.7003 51.8312 23.4614 52.5906C24.5934 53.7199 25.8758 55 27.4964 55C29.117 55 30.4021 53.7199 31.5341 52.5906C32.2953 51.8312 33.0818 51.0463 33.7578 50.8655C34.4846 50.671 35.594 50.9639 36.6646 51.2469C38.2543 51.6676 39.897 52.1015 41.249 51.3188C42.6215 50.5245 43.0681 48.8691 43.4998 47.2678C43.785 46.2104 44.0801 45.1165 44.5958 44.6008C45.1116 44.0851 46.2049 43.7905 47.2628 43.5053C48.8657 43.0736 50.519 42.627 51.3133 41.2551C52.0959 39.9031 51.662 38.2593 51.2419 36.6674C50.9584 35.5956 50.666 34.488 50.8606 33.7606C51.0452 33.0813 51.8284 32.2975 52.5879 31.5364ZM49.3737 37.1604C49.6932 38.3709 50.0237 39.6223 49.6412 40.2828C49.2471 40.9638 47.983 41.3054 46.7615 41.6343C45.4581 41.9858 44.1111 42.349 43.23 43.23C42.349 44.1111 41.9853 45.4581 41.6343 46.7615C41.3026 47.9836 40.9638 49.2488 40.2828 49.6418C39.6196 50.0243 38.3709 49.6926 37.161 49.3737C35.8455 49.026 34.4846 48.6679 33.2603 48.994C32.0841 49.3079 31.1107 50.2791 30.17 51.2182C29.2607 52.1252 28.3211 53.0627 27.4986 53.0627C26.6761 53.0627 25.7365 52.123 24.8278 51.2182C23.8881 50.2785 22.9137 49.3079 21.7369 48.994C21.3954 48.9055 21.0438 48.8622 20.6911 48.8652C19.7219 48.914 18.7627 49.0848 17.8362 49.3737C16.6263 49.6926 15.3744 50.0226 14.7144 49.6412C14.0329 49.2471 13.6918 47.983 13.3624 46.7615C13.0114 45.4581 12.6483 44.1111 11.7672 43.23C10.8861 42.349 9.53857 41.9853 8.23577 41.6343C7.01367 41.3026 5.74846 40.9638 5.35601 40.2828C4.97352 39.6196 5.30405 38.3709 5.62354 37.161C5.97121 35.8455 6.33104 34.4846 6.00327 33.2603C5.68876 32.0841 4.71815 31.1107 3.77906 30.17C2.87257 29.2607 1.93458 28.3211 1.93458 27.4986C1.93458 26.6761 2.87423 25.7365 3.77906 24.8272C4.71871 23.8876 5.68876 22.9131 6.00327 21.7369C6.33104 20.5126 5.97121 19.1518 5.62354 17.8357C5.30405 16.6257 4.97407 15.3749 5.35601 14.7144C5.75011 14.0334 7.01422 13.6918 8.23577 13.3629C9.53912 13.0114 10.8889 12.6483 11.7672 11.7672C12.6455 10.8861 13.012 9.53912 13.3629 8.23577C13.6946 7.01367 14.0334 5.74845 14.7144 5.35546C15.3738 4.97297 16.6257 5.30405 17.8362 5.62354C19.1523 5.97176 20.5137 6.33049 21.7369 6.00327C22.9137 5.68931 23.8865 4.71815 24.8278 3.77906C25.7365 2.87202 26.6761 1.93458 27.4986 1.93458C28.3211 1.93458 29.2607 2.87423 30.17 3.77906C31.1096 4.71871 32.0841 5.68931 33.2603 6.00327C34.4846 6.33049 35.8455 5.97176 37.1604 5.62354C38.3709 5.30461 39.6218 4.97352 40.2828 5.35601C40.9638 5.75011 41.3054 7.01422 41.6343 8.23577C41.9858 9.53912 42.349 10.8889 43.23 11.7672C44.1111 12.6455 45.4581 13.012 46.7615 13.3629C47.9836 13.6946 49.2488 14.0334 49.6418 14.7144C50.0237 15.3777 49.6932 16.6263 49.3737 17.8362C49.026 19.1518 48.6668 20.5126 48.994 21.7369C49.3079 22.9131 50.2791 23.8865 51.2182 24.8272C52.1252 25.7365 53.0627 26.6761 53.0627 27.4986C53.0627 28.3211 52.123 29.2607 51.2182 30.17C50.2785 31.1096 49.3079 32.0841 48.994 33.2603C48.6684 34.4841 49.026 35.8449 49.3737 37.1604Z" fill="#121111"/>
<path d="M35.0551 19.6885C34.6376 19.6873 34.224 19.769 33.8383 19.9289C33.4526 20.0888 33.1025 20.3236 32.8082 20.6198L25.7912 27.6357L22.189 24.0335C21.8947 23.7347 21.5442 23.4972 21.1577 23.3345C20.7712 23.1718 20.3563 23.0872 19.9369 23.0856C19.5175 23.084 19.102 23.1654 18.7142 23.3252C18.3264 23.4849 17.9741 23.7198 17.6776 24.0163C17.381 24.3129 17.1461 24.6652 16.9863 25.0529C16.8265 25.4406 16.745 25.8562 16.7466 26.2755C16.7481 26.6949 16.8326 27.1098 16.9953 27.4964C17.1579 27.8829 17.3955 28.2335 17.6942 28.5278L23.5438 34.3774C23.8388 34.6727 24.1892 34.9069 24.5748 35.0668C24.9604 35.2266 25.3738 35.3088 25.7912 35.3088C26.2086 35.3088 26.622 35.2266 27.0076 35.0668C27.3932 34.9069 27.7436 34.6727 28.0386 34.3774L37.3025 25.1147C37.7469 24.6701 38.0496 24.1038 38.1722 23.4872C38.2948 22.8707 38.2318 22.2316 37.9913 21.6509C37.7507 21.0701 37.3434 20.5737 36.8208 20.2244C36.2981 19.8751 35.6837 19.6886 35.0551 19.6885ZM35.935 23.7461L26.6695 33.0099C26.4325 33.2359 26.1176 33.3619 25.7901 33.3619C25.4626 33.3619 25.1477 33.2359 24.9107 33.0099L19.0622 27.1603C18.9467 27.0449 18.8551 26.9078 18.7926 26.7569C18.7301 26.606 18.6979 26.4443 18.6979 26.2809C18.6979 26.1176 18.7301 25.9559 18.7926 25.805C18.8551 25.6541 18.9467 25.517 19.0622 25.4015C19.1777 25.2861 19.3148 25.1944 19.4657 25.1319C19.6166 25.0694 19.7783 25.0373 19.9416 25.0373C20.1049 25.0373 20.2667 25.0694 20.4175 25.1319C20.5684 25.1944 20.7055 25.2861 20.821 25.4015L25.1075 29.6875C25.1972 29.7773 25.3038 29.8486 25.4211 29.8973C25.5384 29.9459 25.6642 29.971 25.7912 29.971C25.9182 29.971 26.044 29.9459 26.1613 29.8973C26.2786 29.8486 26.3852 29.7773 26.475 29.6875L34.1768 21.9867C34.4134 21.7602 34.7283 21.6338 35.0559 21.6338C35.3835 21.6338 35.6984 21.7602 35.935 21.9867C36.0505 22.1022 36.1421 22.2392 36.2046 22.3901C36.2671 22.5409 36.2992 22.7026 36.2992 22.8659C36.2992 23.0291 36.2671 23.1908 36.2046 23.3417C36.1421 23.4925 36.0505 23.6296 35.935 23.745V23.7461Z" fill="#121111"/>
</svg>
