<svg width="36" height="32" viewBox="0 0 36 32" fill="none" xmlns="http://www.w3.org/2000/svg">
<path d="M27.6127 25.7268L26.8084 26.5311L24.8633 24.5859H26.4719L27.6127 25.7268Z" fill="#121111"/>
<path d="M30.8021 25.7268C30.8021 26.6345 30.4415 27.505 29.7997 28.1469C29.1578 28.7887 28.2873 29.1493 27.3796 29.1493H23.957V28.0085H27.3796C27.7803 28.0091 28.1741 27.904 28.5213 27.7039C28.8684 27.5037 29.1566 27.2155 29.3568 26.8683C29.557 26.5212 29.6621 26.1274 29.6615 25.7267C29.6608 25.3259 29.5545 24.9325 29.3533 24.5859H30.6025C30.7356 24.9515 30.8032 25.3377 30.8021 25.7268Z" fill="#121111"/>
<path d="M26.8071 26.5283L23.1484 22.8696L26.8071 19.2109L27.6137 20.0175L24.7616 22.8696L27.6137 25.7218L26.8071 26.5283Z" fill="#121111"/>
<path d="M4.56306 21.844V22.8707L1.71094 21.7299V20.7031L4.56306 21.844Z" fill="#121111"/>
<path d="M4.56306 20.0783V21.1051L1.71094 19.9643V18.9375L4.56306 20.0783Z" fill="#121111"/>
<path d="M17.7334 30.9319L0 23.2477V9.98072L18.7887 0L35.3663 6.51254V19.7646L32.383 21.6528L31.7727 20.6882L34.2255 19.1366V7.29003L18.86 1.25322L1.14085 10.6669V22.4987L17.633 29.645L21.1685 27.4083L21.7788 28.3724L17.7334 30.9319Z" fill="#121111"/>
<path d="M17.6832 30.8562C17.6047 30.8563 17.5271 30.8404 17.455 30.8094L0.342256 23.3939C0.240398 23.3494 0.153744 23.2762 0.0929416 23.1831C0.0321389 23.0901 -0.000164339 22.9813 6.28704e-07 22.8702V10.3209C-7.09589e-05 10.2276 0.0227378 10.1357 0.0664283 10.0533C0.110119 9.97085 0.173357 9.9004 0.250603 9.84809C0.327848 9.79579 0.416742 9.76323 0.509496 9.75326C0.602249 9.7433 0.696031 9.75624 0.782623 9.79094L17.8954 16.636C18.0012 16.6784 18.0919 16.7516 18.1557 16.8461C18.2196 16.9405 18.2537 17.0519 18.2536 17.166V30.2857C18.2536 30.437 18.1935 30.5821 18.0865 30.6891C17.9795 30.7961 17.8345 30.8562 17.6832 30.8562ZM1.14085 22.496L17.1127 29.417V17.5521L1.14085 11.1634V22.496Z" fill="#121111"/>
<path d="M17.6837 30.8563C17.5324 30.8563 17.3873 30.7962 17.2804 30.6892C17.1734 30.5822 17.1133 30.4371 17.1133 30.2859V17.1661C17.1133 17.0677 17.1388 16.9709 17.1873 16.8852C17.2357 16.7996 17.3056 16.7279 17.3899 16.6772L34.5027 6.40959C34.5892 6.35759 34.688 6.3295 34.789 6.32817C34.8899 6.32685 34.9894 6.35235 35.0773 6.40206C35.1652 6.45177 35.2383 6.52391 35.2892 6.61112C35.34 6.69833 35.3669 6.79748 35.3669 6.89844V19.4478C35.3669 19.544 35.3426 19.6386 35.2962 19.7229C35.2498 19.8072 35.1829 19.8783 35.1016 19.9298L32.3836 21.6502L31.7732 20.6856L34.226 19.1346V7.90638L18.2541 17.4895V29.25L21.169 27.4058L21.7788 28.3698L17.9883 30.7656C17.8974 30.8241 17.7918 30.8555 17.6837 30.8563Z" fill="#121111"/>
<path d="M10.8366 18.8798C10.7639 18.8799 10.6919 18.8662 10.6244 18.8393L7.77229 17.6984C7.66646 17.656 7.57576 17.5829 7.51191 17.4884C7.44806 17.3939 7.41398 17.2825 7.41406 17.1685V13.2896C7.41399 13.1963 7.4368 13.1044 7.48049 13.022C7.52418 12.9396 7.58742 12.8691 7.66466 12.8168C7.74191 12.7645 7.8308 12.732 7.92356 12.722C8.01631 12.712 8.11009 12.725 8.19669 12.7597L11.0488 13.9005C11.1547 13.943 11.2455 14.0162 11.3093 14.1108C11.3732 14.2054 11.4072 14.3169 11.407 14.431V18.3099C11.407 18.4612 11.3469 18.6063 11.24 18.7133C11.133 18.8202 10.9879 18.8803 10.8366 18.8803V18.8798ZM8.55491 16.7823L10.2662 17.4668V14.8166L8.55491 14.1321V16.7823Z" fill="#121111"/>
<path d="M10.8371 15.002C10.7644 15.0021 10.6924 14.9884 10.6249 14.9615L7.77279 13.8206C7.67474 13.7814 7.58948 13.7158 7.52653 13.631C7.46357 13.5463 7.42538 13.4457 7.41622 13.3405C7.40705 13.2353 7.42727 13.1296 7.47461 13.0352C7.52196 12.9408 7.59458 12.8614 7.68438 12.8059L24.4035 2.45264C24.4788 2.40601 24.564 2.37755 24.6522 2.36953C24.7404 2.36151 24.8293 2.37415 24.9118 2.40644L27.7913 3.54044C27.8883 3.5806 27.9723 3.64675 28.0341 3.73159C28.0959 3.81643 28.1331 3.91668 28.1416 4.02131C28.1501 4.12593 28.1295 4.23087 28.0822 4.32457C28.0349 4.41827 27.9627 4.4971 27.8734 4.55237L11.1372 14.9164C11.047 14.9723 10.9431 15.0019 10.8371 15.002ZM9.24563 13.1812L10.7801 13.7944L26.3093 4.17875L24.7618 3.57239L9.24563 13.1812Z" fill="#121111"/>
<path d="M26.8101 32.0029C25.3434 32.0029 23.9097 31.568 22.6902 30.7532C21.4707 29.9384 20.5203 28.7802 19.959 27.4252C19.3977 26.0702 19.2509 24.5792 19.537 23.1407C19.8232 21.7022 20.5294 20.3809 21.5665 19.3438C22.6036 18.3068 23.9249 17.6005 25.3634 17.3144C26.8018 17.0282 28.2928 17.1751 29.6479 17.7364C31.0029 18.2976 32.161 19.2481 32.9758 20.4676C33.7907 21.687 34.2256 23.1207 34.2256 24.5874C34.2233 26.5534 33.4413 28.4383 32.0511 29.8285C30.6609 31.2187 28.7761 32.0007 26.8101 32.0029ZM26.8101 18.3127C25.569 18.3127 24.3559 18.6807 23.324 19.3702C22.2922 20.0597 21.4879 21.0396 21.013 22.1862C20.5381 23.3327 20.4138 24.5944 20.656 25.8115C20.8981 27.0287 21.4957 28.1467 22.3732 29.0243C23.2507 29.9018 24.3688 30.4994 25.5859 30.7415C26.8031 30.9836 28.0647 30.8594 29.2113 30.3844C30.3578 29.9095 31.3378 29.1053 32.0273 28.0734C32.7167 27.0416 33.0847 25.8284 33.0847 24.5874C33.0829 22.9238 32.4213 21.3289 31.2449 20.1525C30.0686 18.9762 28.4736 18.3145 26.8101 18.3127Z" fill="#121111"/>
<path d="M27.3796 29.1498H23.957V28.0089H27.3796C27.9847 28.0089 28.5651 27.7685 28.993 27.3406C29.4209 26.9127 29.6613 26.3324 29.6613 25.7272C29.6613 25.1221 29.4209 24.5417 28.993 24.1138C28.5651 23.6859 27.9847 23.4455 27.3796 23.4455H23.957V22.3047H27.3796C28.2873 22.3047 29.1578 22.6653 29.7997 23.3071C30.4415 23.949 30.8021 24.8195 30.8021 25.7272C30.8021 26.635 30.4415 27.5055 29.7997 28.1473C29.1578 28.7892 28.2873 29.1498 27.3796 29.1498Z" fill="#121111"/>
</svg>
