<svg width="54" height="55" viewBox="0 0 54 55" fill="none" xmlns="http://www.w3.org/2000/svg">
<path d="M53.515 13.9251C53.459 13.813 53.459 13.757 53.3469 13.6449C53.2909 13.5329 53.1788 13.4768 53.0107 13.4208L40.1783 6.75242L27.1778 0.084055C26.9536 -0.0280183 26.6735 -0.0280183 26.4493 0.084055L13.3928 6.75242L0.50433 13.4208C0.33622 13.4768 0.16811 13.6449 0.112073 13.813C0.0560367 13.9251 0.0560367 13.9812 0 14.0932V40.8227C0 41.1029 0.16811 41.3831 0.448293 41.5512L26.3933 54.8319C26.3933 54.8319 26.4493 54.8319 26.4493 54.8879C26.4493 54.8879 26.5053 54.8879 26.5053 54.944C26.6174 55 26.6735 55 26.7855 55C26.8976 55 26.9536 55 27.0657 54.944C27.0657 54.944 27.1218 54.944 27.1218 54.8879C27.1218 54.8879 27.1778 54.8879 27.1778 54.8319L53.1228 41.5512C53.403 41.3831 53.5711 41.1029 53.5711 40.8227V14.1493C53.5711 14.0372 53.5711 13.9812 53.515 13.9251ZM26.7855 1.70912L39.3938 8.20937L50.9934 14.1493L43.0362 18.2399L18.8283 5.7998L26.7855 1.70912ZM37.3204 22.947L40.1223 21.4901L41.9715 20.5374V24.0117L40.4585 23.3393C40.1223 23.1712 39.73 23.2832 39.5059 23.5634L37.3765 26.1971V22.947H37.3204ZM14.1773 8.20937L17.0352 6.75242L41.243 19.1365L36.5359 21.6021L12.3281 9.162L14.1773 8.20937ZM26.001 52.8706L1.62506 40.3184V15.4941L13.4488 21.5461L26.001 27.9903V52.8706ZM26.7855 26.5894L14.1773 20.0891L2.57769 14.1493L10.5349 10.0586L34.7427 22.4987L26.7855 26.5894ZM51.946 40.3744L27.57 52.8146V27.9903L35.7514 23.7876V28.4946C35.7514 28.9429 36.0876 29.2792 36.5359 29.2792C36.8161 29.2792 37.0402 29.1671 37.2084 28.9429L40.3464 25.0764L42.4758 25.973C42.8681 26.1411 43.3724 25.973 43.5405 25.5247C43.5965 25.4687 43.5965 25.3566 43.5965 25.2445V19.7529L51.946 15.4941V40.3744Z" fill="#121111"/>
</svg>
