<svg width="29" height="33" viewBox="0 0 29 33" fill="none" xmlns="http://www.w3.org/2000/svg">
<path d="M23.2931 13.8458C23.2931 8.95241 19.3101 4.97656 14.4239 4.97656C9.53765 4.97656 5.55469 8.95241 5.55469 13.8458C5.55469 18.732 9.53053 22.715 14.4239 22.715C19.3172 22.715 23.2931 18.732 23.2931 13.8458ZM14.4239 21.5699C10.1635 21.5699 6.69268 18.1061 6.69268 13.8386C6.69268 9.57119 10.1635 6.11455 14.4239 6.11455C18.6842 6.11455 22.1551 9.5783 22.1551 13.8458C22.1551 18.1132 18.6842 21.5699 14.4239 21.5699Z" fill="#121111"/>
<path d="M25.2918 23.0284C25.6119 22.8648 25.8964 22.6514 26.1168 22.3527C26.6929 21.5632 26.5578 20.5319 26.4298 19.5291C26.3444 18.8818 26.2591 18.2061 26.4084 17.751C26.5436 17.3242 26.9988 16.8477 27.4326 16.3925C28.1083 15.6812 28.8694 14.8775 28.8694 13.8605C28.8694 12.8434 28.1154 12.0254 27.4398 11.3142C27.0059 10.8519 26.5507 10.3825 26.4156 9.95573C26.2662 9.50054 26.3515 8.82485 26.4369 8.17762C26.5649 7.17477 26.6929 6.14347 26.124 5.35399C25.5478 4.5574 24.5165 4.36536 23.5208 4.17333C22.8807 4.05242 22.2192 3.9315 21.8423 3.65412C21.4653 3.38385 21.1524 2.80063 20.8465 2.23163C20.3842 1.37814 19.8508 0.410852 18.9048 0.0979055C17.9944 -0.200816 17.0627 0.240154 16.1594 0.6669C15.5549 0.951397 14.9361 1.24301 14.4382 1.24301C13.9404 1.24301 13.3216 0.951397 12.717 0.6669C11.8137 0.240154 10.882 -0.200816 9.97163 0.0979055C9.01856 0.40374 8.52069 1.33547 8.02993 2.23163C7.7241 2.79352 7.40404 3.38385 7.03419 3.65412C6.65012 3.9315 5.99578 4.05953 5.35566 4.17333C4.35992 4.35825 3.32862 4.5574 2.75251 5.35399C2.1764 6.14347 2.31154 7.17477 2.43956 8.17762C2.52491 8.82485 2.61026 9.50054 2.4609 9.95573C2.32576 10.3825 1.87057 10.859 1.43671 11.3142C0.76103 12.0254 0 12.8292 0 13.8462C0 14.8633 0.768142 15.667 1.43671 16.3783C1.87057 16.8406 2.32576 17.31 2.4609 17.7367C2.61026 18.1919 2.52491 18.8676 2.43956 19.5148C2.31154 20.5177 2.18352 21.549 2.75251 22.3385C2.973 22.6372 3.25749 22.8577 3.57755 23.0142L0.476533 28.384C0.362734 28.5832 0.376959 28.8321 0.519207 29.017C0.661456 29.202 0.896166 29.2802 1.11665 29.2233L5.69706 27.9928L6.92751 32.5733C6.98441 32.7937 7.17644 32.9573 7.40404 32.9929C7.43249 32.9929 7.45383 33 7.47516 33C7.67431 33 7.86635 32.8933 7.96592 32.7155L10.8749 27.6728C11.4937 27.6017 12.1196 27.3101 12.7241 27.0256C13.3287 26.7411 13.9475 26.4495 14.4453 26.4495C14.9432 26.4495 15.562 26.7411 16.1666 27.0256C16.7711 27.3101 17.397 27.6088 18.0158 27.6728L20.9248 32.7155C21.0243 32.8933 21.2164 33 21.4155 33C21.4369 33 21.4653 33 21.4866 32.9929C21.7142 32.9644 21.8992 32.8008 21.9632 32.5733L23.1936 27.9928L27.774 29.2233C27.9945 29.2802 28.2292 29.202 28.3715 29.017C28.5137 28.8321 28.528 28.5832 28.4142 28.384L25.2918 23.0284ZM7.64586 30.9658L6.62878 27.1607C6.55055 26.8549 6.2376 26.6771 5.93177 26.7553L2.12662 27.7724L4.65864 23.384C4.87913 23.4338 5.10672 23.4765 5.33432 23.5191C5.97444 23.64 6.6359 23.761 7.01286 24.0383C7.38981 24.3086 7.70276 24.8918 8.0086 25.4608C8.42112 26.2219 8.88342 27.0682 9.65157 27.4665L7.64586 30.9658ZM14.424 25.3186C13.6701 25.3186 12.9304 25.6671 12.2192 26.0014C11.515 26.3357 10.7896 26.677 10.313 26.5206C9.79381 26.3499 9.40263 25.6244 9.01856 24.9274C8.64871 24.2517 8.27176 23.5547 7.68854 23.1279C7.09821 22.7012 6.30872 22.5518 5.54769 22.4096C4.77244 22.2602 3.96874 22.1109 3.64868 21.6841C3.34284 21.2645 3.44242 20.4537 3.54199 19.6784C3.64156 18.9032 3.74114 18.1066 3.51354 17.4024C3.29305 16.7339 2.75251 16.1578 2.2333 15.6101C1.67853 15.0269 1.10243 14.4223 1.10243 13.8605C1.10243 13.2986 1.67853 12.694 2.2333 12.1108C2.75962 11.556 3.30017 10.987 3.51354 10.3185C3.74114 9.61434 3.64156 8.81774 3.54199 8.04249C3.44242 7.26012 3.34284 6.45642 3.64868 6.03678C3.96162 5.60293 4.76533 5.45356 5.54769 5.31132C6.30872 5.16907 7.09821 5.01971 7.68854 4.59296C8.27176 4.17333 8.64871 3.4692 9.01856 2.79352C9.40263 2.08939 9.79381 1.37103 10.313 1.20033C10.7967 1.04386 11.5221 1.38525 12.2192 1.71954C12.9304 2.05382 13.6701 2.40233 14.424 2.40233C15.1779 2.40233 15.9176 2.05382 16.6289 1.71954C17.333 1.38525 18.0585 1.04386 18.535 1.20033C19.0542 1.37103 19.4454 2.0965 19.8295 2.79352C20.1993 3.4692 20.5763 4.16621 21.1595 4.59296C21.7498 5.01971 22.5393 5.16907 23.3003 5.31132C24.0756 5.46068 24.8793 5.61004 25.1993 6.03678C25.5052 6.45642 25.4056 7.26723 25.306 8.04249C25.2064 8.81774 25.1069 9.61434 25.3345 10.3185C25.555 10.987 26.0955 11.5631 26.6147 12.1108C27.1695 12.694 27.7456 13.2986 27.7456 13.8605C27.7456 14.4223 27.1695 15.0269 26.6147 15.6101C26.0884 16.1649 25.5478 16.7339 25.3345 17.4024C25.1069 18.1066 25.2064 18.9032 25.306 19.6784C25.4056 20.4608 25.5052 21.2645 25.1993 21.6841C24.8864 22.118 24.0827 22.2673 23.3003 22.4096C22.5393 22.5518 21.7498 22.7012 21.1595 23.1279C20.5763 23.5476 20.1993 24.2517 19.8295 24.9274C19.4454 25.6315 19.0542 26.3499 18.535 26.5206C18.0513 26.677 17.3259 26.3357 16.6289 26.0014C15.9176 25.6671 15.1779 25.3186 14.424 25.3186ZM22.9162 26.7553C22.6104 26.6771 22.2975 26.8549 22.2192 27.1607L21.2022 30.9658L19.1893 27.4808C19.9504 27.0896 20.3984 26.2716 20.8323 25.475C21.1381 24.9132 21.4582 24.3228 21.828 24.0526C22.2121 23.7752 22.8665 23.6472 23.5066 23.5334C23.7342 23.4907 23.9618 23.448 24.1823 23.3982L26.7143 27.7866L22.9162 26.7553Z" fill="#121111"/>
<path d="M19.7566 10.3685C19.5361 10.148 19.1734 10.148 18.9529 10.3685L13.1918 16.1296L9.89876 12.8365C9.67827 12.616 9.31554 12.616 9.09505 12.8365C8.87457 13.057 8.87457 13.4197 9.09505 13.6402L12.7935 17.3387C12.9002 17.4454 13.0424 17.5023 13.1989 17.5023C13.3554 17.5023 13.4976 17.4454 13.6043 17.3387L19.7566 11.1722C19.9771 10.9517 19.9771 10.589 19.7566 10.3685Z" fill="#121111"/>
</svg>
